# xmcd CD database file
#
# Track frame offsets:
#	150
#	23245
#	45561
#	57085
#	80346
#	98864
#
# Disc length: 1646 seconds
#
# Revision: 0
# Processed by: cddbd v1.5.1PL0 Copyright (c) Steve Scherf et al.
# Submitted via: CDex 1.51
#
DISCID=3f066c06
DTITLE=空色絵本 - プラネタリウム
DYEAR=1900
DGENRE=未分類 (日本)
TTITLE0=蜃気楼
TTITLE1=アトムの光
TTITLE2=宇宙船
TTITLE3=Light of love
TTITLE4=妖精のとなり
TTITLE5=Nature Step
EXTD=
EXTT0=
EXTT1=
EXTT2=
EXTT3=
EXTT4=
EXTT5=
PLAYORDER=
